<?xml version="1.0" standalone="no"?>
<!DOCTYPE svg PUBLIC "-//W3C//DTD SVG 20010904//EN"
 "http://www.w3.org/TR/2001/REC-SVG-20010904/DTD/svg10.dtd">
<svg version="1.0" xmlns="http://www.w3.org/2000/svg"
 width="1024.000000pt" height="1024.000000pt" viewBox="0 0 1024.000000 1024.000000"
 preserveAspectRatio="xMidYMid meet">
<metadata>
Created by potrace 1.16, written by Peter Selinger 2001-2019
</metadata>
<g transform="translate(0.000000,1024.000000) scale(0.100000,-0.100000)"
fill="#000000" stroke="none">
<path d="M5095 9164 c-265 -40 -483 -125 -710 -275 -168 -111 -368 -314 -479
-488 -24 -37 -31 -42 -54 -37 -83 19 -260 36 -422 42 -389 14 -668 -38 -930
-172 -177 -90 -343 -213 -389 -288 -14 -23 -36 -39 -68 -51 -151 -57 -281
-144 -401 -269 -224 -236 -324 -477 -325 -786 -1 -186 32 -328 115 -494 100
-201 275 -380 508 -519 25 -15 38 -27 30 -27 -22 0 -212 93 -266 131 -121 83
-272 255 -336 384 -17 33 -32 62 -35 65 -13 14 -127 -163 -154 -241 -20 -56
-23 -89 -27 -275 -5 -228 0 -258 41 -252 19 3 23 11 27 69 l5 65 52 -56 52
-57 -14 -54 c-22 -82 -20 -106 12 -113 27 -7 43 5 43 33 0 29 24 91 35 91 30
0 46 -29 64 -118 10 -51 22 -96 25 -99 14 -15 17 9 7 57 -6 28 -11 66 -11 84
l0 34 67 -15 c37 -7 71 -17 74 -21 3 -4 12 -29 18 -56 7 -27 18 -64 26 -82 12
-28 17 -32 39 -26 14 4 27 9 28 12 1 3 -7 35 -17 73 -10 37 -15 70 -12 73 4 4
46 10 95 15 95 9 113 12 326 64 146 36 330 69 349 62 13 -4 -121 -54 -275
-102 -74 -23 -115 -41 -111 -48 4 -7 0 -8 -11 -4 -14 6 -17 3 -12 -8 3 -9 2
-14 -3 -10 -5 3 -20 1 -33 -4 -23 -10 -10 -16 22 -11 8 1 13 0 10 -2 -45 -34
-44 -34 -36 -18 4 8 0 6 -8 -4 -9 -11 -16 -14 -16 -8 0 7 -4 12 -10 12 -5 0
-6 -7 -3 -17 4 -11 3 -14 -5 -9 -7 4 -12 2 -12 -5 0 -6 -8 -9 -19 -6 -11 3
-22 -1 -25 -8 -3 -10 4 -10 32 -4 20 5 98 22 172 39 146 32 425 104 586 150
236 68 425 161 581 286 51 41 94 74 97 74 2 0 11 -19 21 -42 20 -53 59 -96
103 -114 30 -13 46 -11 203 26 93 22 179 44 189 50 22 12 24 26 11 83 -5 20
-7 37 -6 37 2 0 40 -19 84 -42 l80 -42 63 12 c67 12 422 107 437 116 5 3 30
-4 57 -15 38 -17 44 -23 31 -31 -9 -5 -25 -29 -36 -53 -25 -56 -35 -58 -26 -5
8 45 3 48 -49 26 -25 -11 -37 -24 -46 -53 -19 -59 -30 -63 -30 -10 0 47 0 47
-27 41 -41 -9 -73 -32 -73 -52 0 -20 -27 -62 -40 -62 -5 0 -4 14 1 32 12 45
12 48 -11 48 -46 0 -87 -27 -103 -69 -22 -53 -41 -55 -32 -2 6 38 5 39 -17 34
-93 -21 -96 -23 -108 -57 -11 -34 -36 -63 -45 -54 -3 3 0 19 6 37 6 18 10 34
7 36 -2 2 -26 -2 -53 -8 -40 -10 -53 -19 -66 -45 -43 -84 -75 -83 -43 3 5 13
2 15 -22 10 -99 -23 -102 -25 -114 -59 -6 -19 -18 -40 -27 -47 -14 -12 -15 -9
-8 30 l7 43 -33 -7 c-62 -12 -66 -15 -87 -65 -12 -28 -26 -50 -31 -50 -13 0
-14 6 -1 49 l9 34 -46 -7 c-55 -7 -70 -18 -78 -56 -3 -16 -13 -35 -22 -42 -15
-12 -16 -9 -11 30 7 47 3 49 -47 28 -25 -11 -41 -28 -57 -60 -12 -25 -25 -46
-30 -46 -7 0 -3 44 7 77 3 9 -5 11 -28 6 -56 -10 -81 -27 -105 -71 -34 -62
-57 -52 -32 14 l11 27 -40 -7 c-67 -10 -89 -24 -110 -65 -33 -64 -50 -66 -32
-3 9 30 8 32 -15 32 -51 0 -95 -27 -111 -70 -9 -22 -22 -40 -29 -40 -7 0 -12
6 -10 13 3 6 7 24 10 39 6 26 5 27 -26 22 -45 -9 -78 -31 -78 -53 0 -10 -9
-29 -20 -42 l-21 -24 6 43 c6 38 5 42 -13 42 -45 0 -73 -20 -92 -65 -24 -57
-43 -60 -34 -5 4 22 5 40 2 40 -2 0 -27 -7 -55 -15 -45 -13 -51 -19 -62 -55
-15 -50 -36 -54 -27 -5 6 30 4 35 -12 35 -10 0 -33 -5 -50 -11 -23 -8 -31 -18
-36 -44 -4 -18 -14 -39 -23 -46 -15 -13 -16 -10 -10 29 8 47 -1 52 -60 31 -25
-8 -32 -18 -39 -51 -13 -59 -39 -65 -29 -8 l7 43 -32 -7 c-43 -8 -60 -23 -60
-52 0 -19 -23 -54 -35 -54 -2 0 -1 18 2 40 l6 40 -34 -6 c-51 -10 -56 -14
-128 -112 -36 -49 -109 -144 -161 -211 -53 -66 -111 -151 -130 -188 l-35 -68
-3 -1126 c-3 -1300 -17 -1151 115 -1214 114 -54 178 -48 267 24 21 17 47 31
57 31 10 0 70 14 134 30 64 17 124 30 134 30 12 0 21 -14 29 -45 15 -55 73
-122 127 -146 47 -22 133 -24 178 -6 85 36 147 121 156 212 l6 60 100 28 c416
115 554 153 728 199 108 28 200 49 203 45 7 -7 -62 -117 -84 -135 -9 -6 -26
-12 -39 -12 -27 0 -26 2 -28 -170 0 -63 -6 -182 -13 -263 -12 -139 -11 -157 8
-273 12 -68 30 -149 40 -180 11 -31 17 -60 15 -65 -3 -4 0 -11 7 -16 7 -4 28
-37 47 -73 108 -208 299 -395 511 -500 282 -141 622 -159 920 -49 86 32 209
99 277 151 34 27 70 48 79 48 17 0 325 83 604 162 96 28 190 50 208 50 18 0
61 -10 95 -21 137 -45 223 -56 422 -56 215 0 299 13 474 71 445 148 824 486
1035 924 30 61 73 169 97 240 l43 128 106 31 c58 17 111 31 119 31 11 0 12 11
8 51 -4 29 -8 53 -10 55 -2 2 -42 -7 -90 -20 l-87 -23 0 28 c0 30 -7 27 191
84 56 16 56 16 64 63 4 26 9 151 10 278 l2 231 31 45 c23 33 33 63 39 108 7
56 11 64 33 71 14 4 58 17 98 28 l72 22 0 44 c0 50 6 49 -90 24 -51 -13 -52
-12 -48 27 3 37 3 37 83 60 44 13 112 31 150 40 76 18 95 33 95 75 0 21 -7 30
-32 40 -18 7 -49 28 -69 46 -43 39 -32 40 -239 -21 -129 -38 -408 -116 -416
-116 -2 0 -4 9 -4 20 0 15 14 23 68 39 134 39 318 90 385 107 37 9 82 28 101
43 20 16 63 34 110 45 l76 18 0 64 c0 47 -4 64 -14 64 -40 0 -536 -142 -530
-151 3 -5 -2 -6 -11 -3 -8 4 -23 0 -32 -7 -13 -11 -15 -11 -9 -1 5 8 -8 5 -33
-7 -33 -17 -41 -19 -41 -7 0 32 20 63 47 74 30 13 478 137 553 154 25 6 49 14
53 18 5 4 9 41 9 81 2 86 11 82 -122 49 -56 -14 -87 -26 -83 -33 4 -7 0 -8
-12 -4 -9 4 -24 2 -31 -4 -11 -9 -14 -9 -14 0 0 8 -5 9 -19 1 -29 -15 -40 -12
-36 10 7 34 12 37 110 70 51 17 105 40 119 51 28 22 35 59 12 59 -14 0 -198
-43 -236 -55 -19 -6 -19 -4 2 42 13 30 23 77 26 125 l5 77 97 31 c73 22 102
36 114 55 9 13 29 31 45 39 25 14 48 62 35 75 -2 2 -67 -12 -143 -32 -77 -21
-142 -37 -145 -37 -3 0 -6 22 -6 50 l0 49 43 12 c23 7 87 24 142 39 l100 27 3
152 c2 142 1 152 -15 147 -62 -18 -250 -66 -260 -66 -16 0 -18 86 -3 95 6 4
66 22 134 40 68 18 129 36 135 39 7 5 11 59 11 157 0 149 0 150 -22 144 -31
-10 -252 -65 -261 -65 -4 0 -7 26 -5 57 l3 56 140 37 140 37 3 32 c6 61 4 62
-120 31 -62 -15 -125 -31 -140 -34 l-28 -6 0 75 c0 59 3 75 15 75 19 0 38 36
30 60 -4 11 -15 20 -26 20 -17 0 -19 7 -19 69 0 92 -27 140 -143 260 l-92 95
40 11 c22 7 55 16 73 19 l32 8 0 -52 c0 -62 20 -105 60 -125 45 -23 85 -19
121 13 28 25 32 35 32 76 -1 26 -9 58 -19 73 -15 24 -16 45 -11 182 7 175 3
191 -53 229 -30 20 -44 23 -90 19 -30 -3 -65 -8 -77 -12 -21 -7 -23 -4 -23 33
0 54 -17 90 -51 108 -77 39 -155 -3 -167 -91 l-7 -49 -150 -37 c-83 -21 -172
-45 -200 -53 -27 -8 -68 -17 -90 -21 l-40 -7 26 29 c15 15 32 38 38 50 7 15
24 24 49 28 20 4 49 9 65 11 l27 6 -17 30 c-10 17 -37 43 -60 57 -38 24 -42
31 -52 86 -13 75 -51 130 -116 170 -44 27 -56 30 -144 32 -95 1 -95 1 -103 28
-11 41 -37 65 -81 72 -52 8 -70 42 -40 76 42 45 57 89 57 162 0 79 -36 180
-60 171 -15 -6 -38 27 -27 38 3 3 14 6 23 6 46 0 63 72 20 83 -23 6 -65 -36
-57 -57 4 -11 -13 -5 -55 17 -50 26 -73 32 -122 32 -67 -1 -144 -32 -176 -72
-15 -20 -19 -20 -32 -7 -14 14 -12 21 18 66 39 58 45 117 17 175 -17 37 -65
73 -98 73 -10 0 -117 -25 -237 -55 -119 -30 -223 -55 -230 -55 -7 0 -27 20
-45 43 -236 313 -577 540 -943 628 -201 48 -452 61 -635 33z m527 -268 c92
-21 292 -97 302 -115 2 -3 6 -53 10 -111 l7 -105 -188 -84 c-162 -73 -190 -82
-213 -73 -117 48 -355 142 -397 157 l-53 19 0 87 c0 130 0 131 143 200 l122
60 80 -6 c44 -3 128 -16 187 -29z m-502 -7 c-25 -12 -106 -34 -181 -49 -214
-44 -342 -104 -515 -242 -47 -38 -89 -67 -92 -63 -10 9 116 123 197 177 132
90 216 120 464 168 175 34 183 35 127 9z m-123 -156 c-4 -38 -7 -91 -7 -120 0
-52 -1 -53 -56 -95 -93 -71 -147 -108 -194 -134 -25 -14 -63 -36 -85 -49 -22
-14 -44 -25 -50 -25 -5 1 -1 6 10 12 11 6 22 15 25 19 3 4 37 23 75 43 39 20
96 58 127 85 31 27 72 58 91 70 43 26 44 29 39 114 -4 71 -21 93 -23 30 -1
-21 -3 -29 -6 -18 -10 48 -17 47 -28 -5 -7 -31 -13 -44 -14 -30 -2 40 -13 70
-22 64 -5 -3 -9 -35 -10 -72 0 -71 -8 -67 -29 16 -18 72 -32 50 -25 -40 6 -86
-6 -93 -20 -11 -3 23 -13 47 -21 54 -12 10 -13 0 -9 -67 l5 -79 -16 55 c-8 30
-22 62 -30 70 -14 13 -15 11 -10 -20 3 -19 7 -57 10 -85 l6 -50 -20 45 c-50
114 -51 114 -45 15 l4 -90 -20 65 c-12 36 -24 69 -29 74 -5 4 -7 -29 -4 -75
l4 -84 -16 50 c-25 83 -25 83 -34 60 -7 -19 -6 -46 6 -103 9 -46 -14 -11 -26
38 -17 71 -35 77 -28 9 l6 -54 -21 45 -22 45 -4 -60 -3 -60 -18 40 -19 40 0
-56 c-1 -30 5 -63 12 -72 13 -18 94 -50 107 -42 5 3 11 1 14 -4 10 -15 -29
-23 -57 -12 -14 6 -44 21 -65 35 -39 24 -40 26 -44 93 -7 98 5 121 107 196
122 90 276 160 409 187 82 16 80 18 73 -57z m1155 -24 c61 -31 155 -116 224
-202 64 -81 148 -236 158 -290 6 -32 -12 -42 -98 -55 l-51 -8 -178 181 -179
180 1 103 c0 57 3 108 7 113 8 13 70 1 116 -22z m-980 -233 c195 -64 389 -153
413 -189 30 -46 107 -303 151 -507 5 -20 -7 -36 -75 -100 -88 -84 -218 -177
-293 -210 l-48 -21 -192 94 c-106 52 -249 119 -317 148 -97 42 -125 59 -133
79 -11 29 -58 339 -58 387 0 28 9 39 80 93 119 91 363 250 382 250 10 0 50
-11 90 -24z m788 5 c0 -4 -56 -35 -125 -67 -89 -42 -125 -64 -125 -76 0 -25
16 -23 121 18 91 35 167 48 170 29 1 -10 -171 -106 -181 -100 -4 2 -18 -2 -33
-10 -22 -11 -28 -11 -38 1 -21 26 -20 9 7 -90 27 -102 27 -139 1 -64 -8 24
-31 87 -51 140 l-35 97 62 29 c34 17 87 41 117 54 30 13 66 29 80 35 32 15 30
14 30 4z m-1656 -42 c3 -17 6 -51 6 -75 0 -42 -2 -45 -72 -100 -40 -31 -92
-75 -115 -97 l-42 -41 -9 25 c-12 31 -9 39 54 134 48 73 148 185 165 185 3 0
9 -14 13 -31z m2806 -19 c25 -25 25 -41 2 -70 -13 -16 -49 -29 -142 -51 -69
-16 -132 -32 -141 -34 -11 -4 -22 9 -39 45 -13 27 -22 52 -19 54 5 4 288 73
307 75 6 0 21 -8 32 -19z m-447 -249 c91 -173 134 -333 145 -531 13 -241 -17
-412 -110 -618 -195 -433 -590 -750 -1062 -853 -126 -28 -322 -36 -439 -18
l-92 14 70 5 c68 5 71 12 11 25 -50 11 -24 13 77 6 53 -3 105 -3 115 1 13 5
12 7 -8 7 -14 1 -47 8 -75 15 -47 13 -41 13 100 10 122 -2 135 -1 72 5 -43 5
-81 11 -84 15 -4 3 45 6 108 6 63 0 121 5 129 11 12 8 11 9 -5 5 -11 -3 -42
-2 -70 3 l-50 8 78 4 c42 2 77 1 77 -3 0 -5 9 -8 20 -8 11 0 20 5 20 10 0 6
-7 10 -15 10 -8 0 -27 13 -41 30 l-27 30 -186 -2 -186 -2 -50 -37 c-50 -36
-107 -69 -122 -69 -4 0 10 12 32 27 22 14 63 45 90 68 l50 42 130 1 c72 1 158
4 192 8 61 6 62 6 120 -38 68 -53 95 -68 119 -68 19 0 208 82 262 113 46 27
32 33 -18 7 -23 -12 -45 -19 -48 -16 -3 3 0 6 6 6 11 0 167 102 187 122 6 6
-14 -2 -43 -17 -73 -36 -77 -26 -5 13 32 17 85 56 118 86 l60 56 -82 -50 c-46
-28 -83 -48 -83 -46 0 3 42 34 94 70 98 68 142 112 152 150 6 25 -19 227 -36
287 -6 20 -20 50 -32 65 -16 21 -10 18 21 -11 47 -45 53 -63 77 -230 l17 -121
-23 -44 c-12 -25 -38 -67 -57 -93 -80 -114 16 -22 112 105 36 48 45 67 40 87
-3 14 -11 72 -18 128 l-13 103 25 24 c42 40 165 135 169 131 7 -7 -21 -50 -65
-99 -61 -68 -54 -82 8 -15 44 47 47 49 23 14 l-27 -40 36 34 c122 115 155 525
68 823 -27 92 -86 248 -122 322 -27 56 -27 59 -5 32 13 -16 44 -67 69 -115z
m-3008 99 c33 -6 83 -15 112 -21 l52 -10 -22 -45 c-20 -42 -24 -45 -52 -41
-16 3 -79 12 -140 22 -137 22 -465 26 -575 7 -146 -25 -318 -72 -405 -112 -11
-5 -37 -16 -57 -25 -23 -10 -35 -22 -31 -29 3 -6 2 -8 -2 -3 -5 4 -19 0 -32
-8 -13 -9 -23 -13 -23 -9 0 3 -12 -2 -27 -12 -25 -16 -153 -47 -161 -39 -1 1
28 25 66 53 199 148 478 246 812 286 65 8 425 -2 485 -14z m801 -90 c94 -44
85 -27 109 -215 9 -66 20 -144 25 -174 20 -112 17 -123 -65 -224 -129 -159
-157 -192 -166 -195 -20 -8 -305 124 -327 151 -16 19 -17 244 -2 312 6 28 22
84 36 126 28 86 59 122 188 213 88 63 77 63 202 6z m2703 7 c48 -52 -16 -102
-143 -114 -59 -5 -62 -4 -94 28 -18 17 -31 37 -29 43 3 9 190 63 228 65 8 1
25 -10 38 -22z m379 -17 c41 -25 52 -54 52 -134 0 -81 -19 -103 -77 -87 -21 5
-50 13 -64 15 -20 4 -34 20 -53 56 -40 76 -34 113 24 153 33 23 78 21 118 -3z
m-3553 -287 c-15 -70 -29 -176 -32 -236 -4 -65 -11 -114 -19 -125 -22 -28 -18
202 5 313 21 101 63 219 69 193 2 -9 -9 -74 -23 -145z m2620 126 c-4 -5 -1
-24 6 -40 9 -23 14 -27 21 -17 6 9 7 5 3 -10 -4 -13 -2 -28 3 -35 14 -18 52
-168 52 -206 0 -51 -22 -82 -125 -176 -82 -76 -125 -127 -125 -150 0 -20 59
17 133 85 49 44 123 147 131 180 2 14 3 -41 0 -121 -2 -91 -9 -159 -18 -179
-8 -21 -48 -59 -116 -111 -57 -43 -107 -79 -111 -79 -4 0 -34 29 -67 65 -66
73 -62 56 -78 297 -7 95 -6 99 19 136 37 52 96 191 115 272 l17 68 60 15 c75
19 88 20 80 6z m-3477 -11 c20 -20 14 -66 -10 -82 -13 -8 -80 -28 -150 -45
-127 -31 -127 -31 -160 -12 -18 10 -50 24 -71 31 -25 8 -35 16 -29 22 15 15
335 95 388 97 11 1 25 -4 32 -11z m4117 -43 c29 -28 30 -34 12 -59 -9 -12 -31
-20 -66 -24 -37 -3 -56 -10 -66 -25 -10 -14 -29 -21 -63 -25 l-50 -4 -10 48
c-6 27 -9 50 -7 52 3 3 205 60 218 61 4 1 19 -10 32 -24z m-3657 -68 c7 -34
-8 -64 -35 -75 -16 -6 -134 -38 -263 -70 l-235 -58 -48 38 c-31 24 -44 40 -35
43 7 2 132 36 278 74 273 72 332 80 338 48z m3925 -93 c41 -6 47 -10 47 -30 0
-61 -43 -119 -100 -134 -53 -14 -97 -2 -135 36 -55 55 -51 136 11 193 l36 33
47 -46 c38 -37 55 -47 94 -52z m-4881 -5 c116 -39 268 -122 348 -189 30 -25
25 -24 -62 19 -87 42 -187 59 -260 43 -103 -24 -205 -130 -215 -226 -8 -70 4
-110 48 -160 50 -57 88 -77 210 -111 148 -42 188 -73 223 -172 l15 -41 -36 24
c-87 59 -159 56 -365 -12 -136 -46 -148 -48 -258 -48 -106 -1 -120 1 -175 27
-104 49 -145 106 -153 217 -8 123 37 239 138 352 102 114 223 174 379 188 53
4 110 15 126 24 30 16 30 16 5 17 -14 1 -5 5 20 8 l45 7 -40 12 c-22 6 -78 12
-125 12 -242 -1 -520 -127 -715 -324 -222 -224 -312 -543 -231 -816 40 -133
205 -335 354 -432 34 -22 60 -43 57 -46 -3 -3 -11 0 -17 6 -7 7 -17 12 -22 12
-6 0 0 -7 12 -16 12 -8 26 -12 32 -9 5 3 26 -3 47 -14 21 -10 64 -27 96 -36
46 -13 60 -23 73 -48 9 -18 34 -58 56 -90 l39 -58 -38 6 c-382 65 -676 332
-768 700 -43 173 -42 330 6 502 73 265 291 521 536 629 182 81 448 99 615 43z
m3289 -95 c101 -18 234 -51 271 -65 23 -9 29 -21 42 -77 8 -37 18 -114 21
-172 l7 -105 -59 -46 c-32 -26 -111 -81 -175 -123 -101 -66 -120 -75 -138 -66
-11 6 -76 30 -143 54 -67 23 -131 46 -142 50 -16 6 -15 3 4 -11 36 -26 158
-80 216 -94 61 -16 63 -18 45 -29 -26 -17 -73 -11 -190 25 -176 54 -164 46
-189 129 -41 139 -42 135 35 186 106 69 222 191 269 283 22 42 41 77 41 77 1
0 39 -7 85 -16z m-2302 -81 c-1 -86 -7 -96 -72 -109 -66 -13 -67 -12 -41 75
13 46 20 54 57 71 23 10 45 19 50 19 4 1 7 -25 6 -56z m1238 -34 c127 -56 333
-164 333 -175 0 -2 -64 28 -142 66 l-143 71 47 -43 c26 -24 63 -70 83 -103 35
-58 31 -55 -36 28 -34 42 -145 137 -160 137 -5 0 14 -28 44 -63 63 -74 121
-157 114 -163 -2 -3 -12 8 -22 23 -28 42 -130 165 -160 193 l-27 25 18 -32
c11 -18 46 -76 80 -130 73 -117 76 -123 71 -123 -2 0 -38 49 -80 108 -80 112
-132 170 -143 159 -4 -4 14 -38 40 -77 59 -88 126 -202 126 -214 0 -5 -21 21
-46 59 -163 243 -184 243 -63 1 71 -142 90 -195 30 -83 -52 95 -139 227 -151
227 -18 0 -11 -28 19 -72 29 -44 71 -130 97 -202 20 -54 14 -45 -40 57 -25 48
-60 105 -78 128 -27 33 -33 37 -41 24 -6 -11 -4 -22 6 -33 17 -19 109 -213
104 -218 -2 -2 -24 33 -50 79 -50 89 -96 150 -97 129 0 -8 15 -46 34 -85 50
-107 53 -133 6 -47 -23 41 -48 81 -56 89 -27 28 -27 1 1 -61 41 -95 41 -100
-4 -23 -22 39 -41 81 -41 94 0 13 3 21 7 18 11 -12 143 200 143 229 0 3 -28
-36 -61 -87 -34 -52 -77 -113 -96 -137 -30 -37 -34 -48 -28 -78 10 -56 92
-319 106 -341 6 -11 28 -25 48 -31 l36 -11 -40 5 c-22 3 -43 9 -47 12 -12 12
-81 204 -128 355 l-18 58 66 89 c81 107 184 230 194 230 4 0 69 -27 145 -61z
m853 31 c0 -35 -171 -176 -275 -227 -66 -33 -66 -19 -14 -213 l34 -124 60 -22
c33 -12 110 -40 170 -60 61 -21 103 -40 94 -42 -15 -3 -314 100 -326 112 -8 8
-93 297 -93 317 0 10 4 19 10 19 25 0 316 214 328 243 5 10 12 9 12 -3z
m-2889 -58 c72 -20 179 -76 222 -116 15 -14 31 -26 35 -26 3 0 25 -20 47 -45
41 -44 142 -222 132 -232 -3 -2 -13 12 -22 31 -25 53 -33 51 -21 -5 9 -44 8
-52 -9 -69 -20 -19 -20 -19 -20 39 0 41 -7 71 -24 104 -26 51 -40 56 -23 8 7
-20 7 -42 1 -65 -12 -45 -32 -58 -28 -20 4 41 -11 133 -22 140 -10 6 -3 -131
7 -147 3 -5 -2 -9 -10 -9 -11 0 -16 10 -16 31 0 17 -4 28 -10 24 -6 -3 -7 1
-4 9 3 9 1 16 -5 16 -6 0 -11 11 -11 24 0 13 -7 27 -16 30 -13 5 -14 3 -6 -6
6 -7 12 -34 14 -59 4 -40 2 -46 -13 -42 -11 3 -15 11 -12 24 3 10 0 19 -6 19
-5 0 -8 7 -5 15 4 8 -1 17 -9 21 -8 3 -18 22 -22 42 -7 35 -8 36 -16 13 -7
-17 -6 -27 3 -33 10 -6 10 -8 1 -8 -7 0 -13 -12 -13 -27 0 -20 -3 -24 -9 -14
-7 11 -10 10 -15 -5 -3 -10 -4 -4 -2 14 1 20 -2 32 -10 32 -7 0 -10 8 -7 20 4
15 1 19 -9 15 -16 -6 -18 -41 -5 -62 5 -8 3 -13 -7 -13 -9 0 -16 5 -16 11 0 6
-6 9 -14 6 -34 -13 -258 79 -276 113 -15 28 -7 145 11 166 46 56 125 68 240
36z m4904 -8 c30 -19 45 -64 38 -108 -7 -44 -61 -109 -105 -127 -39 -15 -48
-26 -48 -58 0 -54 -69 -88 -121 -61 -24 13 -49 61 -49 95 0 34 50 85 84 85 20
0 24 4 19 17 -4 11 -3 14 5 9 7 -4 12 -2 12 3 0 6 -4 11 -10 11 -14 0 -13 15
5 58 13 29 18 34 25 22 8 -12 10 -11 10 7 0 53 82 82 135 47z m264 -20 c25
-21 31 -33 31 -65 0 -47 -35 -89 -73 -89 -32 0 -47 20 -52 69 -2 23 -9 50 -15
60 -8 16 -6 23 12 35 32 23 62 20 97 -10z m-6045 -32 c-16 -10 -106 -128 -147
-193 -95 -149 -120 -212 -131 -324 -6 -59 -6 -60 10 -30 39 75 98 174 128 217
l33 46 7 -61 c3 -34 19 -88 34 -122 l28 -60 -32 -70 c-18 -38 -39 -98 -48
-131 -18 -69 -22 -240 -6 -293 l9 -34 -25 24 c-40 37 -130 178 -149 234 -26
73 -31 242 -11 328 21 90 68 201 118 279 40 64 178 212 187 202 3 -3 1 -8 -5
-12z m2246 -145 l154 -63 79 -185 c43 -101 81 -197 83 -214 4 -24 -5 -41 -45
-91 -68 -84 -166 -157 -200 -149 -45 11 -84 49 -144 139 -76 112 -139 248
-171 366 l-26 95 42 88 c31 65 46 87 57 83 9 -2 86 -33 171 -69z m-570 -12 l0
-64 -37 -10 c-105 -29 -117 -31 -125 -18 -10 16 -30 109 -24 114 7 8 139 41
164 42 21 1 22 -3 22 -64z m5230 -263 l0 -49 -67 -15 c-38 -9 -147 -36 -243
-61 -96 -25 -263 -68 -370 -96 -107 -27 -337 -87 -510 -132 -660 -171 -1085
-278 -1089 -273 -3 3 -1 8 5 12 5 4 25 28 44 55 39 55 -7 39 470 162 495 128
584 151 1170 304 294 77 547 140 563 140 26 1 27 -1 27 -47z m-5752 -133 c9
-30 17 -98 20 -152 3 -84 -1 -113 -22 -188 -33 -113 -60 -168 -138 -271 -65
-87 -154 -178 -250 -256 -32 -26 -53 -48 -48 -50 28 -10 232 115 278 170 16
19 34 28 55 29 24 1 26 3 10 6 -27 5 -29 16 -7 34 50 42 134 207 166 328 20
80 30 262 15 313 -12 46 15 24 66 -53 26 -39 53 -93 62 -121 13 -45 13 -59 -1
-126 -45 -218 -168 -398 -373 -546 -87 -62 -218 -121 -309 -138 -53 -10 -61
-9 -110 16 -29 15 -80 53 -113 85 l-60 57 51 12 c105 24 278 125 404 236 210
185 298 380 267 593 -6 48 -17 96 -23 107 -8 17 -5 16 17 -5 15 -15 34 -51 43
-80z m2481 -31 c86 -28 157 -52 159 -53 2 -2 -19 -67 -24 -74 -2 -2 -12 3 -21
12 -21 18 -181 66 -245 72 l-43 5 57 -25 c32 -14 99 -37 150 -51 51 -15 94
-28 96 -29 2 -2 0 -14 -3 -28 -6 -24 -9 -25 -28 -12 -32 20 -265 77 -301 73
l-31 -3 31 -17 c17 -9 89 -33 160 -53 71 -21 133 -41 138 -45 5 -5 6 -16 2
-25 -5 -13 -9 -15 -19 -6 -16 12 -237 67 -314 77 -35 4 -53 3 -53 -4 0 -16
134 -61 260 -87 99 -20 111 -25 105 -36 -10 -15 -73 -10 -200 16 -135 28 -153
29 -110 10 l30 -14 -30 0 c-16 0 -50 4 -75 9 -25 4 -46 7 -48 6 -1 -2 5 -13
15 -25 16 -19 37 -23 197 -37 98 -8 185 -13 192 -10 16 6 18 -3 5 -23 -8 -12
-38 -13 -190 -5 -161 8 -181 7 -181 -7 0 -34 21 -39 174 -39 160 0 181 -10 59
-29 -81 -12 -238 -4 -252 13 -5 6 -27 58 -49 116 l-40 105 131 136 c73 75 134
137 136 138 2 0 74 -22 160 -51z m-1706 -128 c103 -200 231 -363 402 -510 54
-46 93 -86 88 -87 -18 -6 -109 35 -180 80 -198 127 -341 370 -386 657 l-5 35
16 -40 c9 -22 38 -83 65 -135z m-971 116 c15 -10 25 -23 22 -28 -4 -6 -9 -6
-13 -1 -3 4 -31 9 -61 11 -42 2 -75 -4 -140 -28 -144 -53 -153 -57 -144 -62 5
-3 3 -3 -5 -1 -8 2 -35 -3 -60 -11 -58 -18 -124 -28 -178 -26 -61 1 -111 -37
-69 -53 10 -4 13 -17 10 -42 -3 -26 -1 -34 7 -29 7 4 9 3 5 -4 -3 -6 3 -26 14
-44 25 -41 27 -63 2 -25 -10 15 -22 24 -26 20 -4 -5 -7 -3 -6 2 1 6 1 13 0 18
-1 4 -3 11 -4 16 0 4 -17 21 -36 37 -19 16 -45 39 -58 51 -12 12 -40 27 -62
33 -22 6 -40 15 -40 20 0 6 -4 10 -10 10 -5 0 -10 -4 -10 -10 0 -13 58 -42 71
-35 5 4 9 3 8 -2 -4 -23 2 -35 16 -29 10 4 15 -1 15 -15 0 -12 5 -19 12 -17 7
3 17 -3 23 -13 5 -10 25 -36 43 -58 19 -23 29 -41 24 -41 -5 0 -20 16 -33 35
-13 19 -29 35 -36 35 -6 0 -19 10 -27 22 -15 20 -17 21 -32 7 -14 -15 -14 -18
0 -32 12 -11 13 -17 3 -20 -9 -3 -7 -9 5 -23 16 -16 18 -16 24 -1 3 9 10 14
15 11 11 -6 12 -24 2 -23 -22 4 -21 -5 2 -43 l26 -43 -33 40 c-18 22 -43 50
-55 62 -19 20 -20 23 -5 23 12 0 5 11 -23 35 -22 19 -44 35 -48 35 -5 0 5 -12
22 -26 17 -14 29 -30 25 -35 -8 -14 -24 -11 -19 4 3 6 -8 20 -25 29 -17 9 -30
25 -30 36 0 10 -6 19 -14 19 -10 0 -14 -9 -12 -26 1 -14 7 -25 13 -24 6 1 23
-15 38 -37 16 -22 32 -37 39 -33 6 3 8 3 4 -2 -4 -4 7 -29 26 -54 31 -44 55
-81 44 -71 -26 25 -116 139 -121 154 -6 15 -10 16 -22 6 -20 -17 -19 -28 8
-64 27 -35 55 -86 39 -71 -5 6 -29 37 -51 70 l-42 59 6 -43 c8 -64 34 -160 56
-205 23 -47 23 -52 5 -33 -26 26 -76 137 -92 204 -19 79 -14 209 10 288 25 80
27 81 78 57 178 -83 347 -76 638 28 99 36 194 38 242 6z m1935 -161 c125 -36
228 -67 228 -68 11 -16 85 -216 85 -227 0 -9 -19 -34 -42 -57 -60 -57 -224
-173 -245 -173 -31 0 -246 104 -334 162 -46 30 -109 77 -139 105 l-55 51 30
23 c37 28 143 138 193 201 20 26 40 47 45 48 4 0 110 -29 234 -65z m3792 -32
c20 -14 55 -44 79 -67 l42 -40 0 -854 0 -855 -22 -43 c-12 -24 -53 -81 -92
-126 l-72 -83 -139 -36 c-77 -20 -284 -74 -460 -119 -413 -107 -475 -120 -521
-110 -50 12 -121 58 -158 103 l-31 39 -3 855 c-2 749 0 858 13 886 23 48 141
185 167 193 60 19 1116 282 1137 283 13 1 40 -11 60 -26z m-4720 -335 c28 -42
78 -100 111 -128 76 -66 198 -136 273 -157 32 -9 54 -20 50 -24 -7 -6 -120
-39 -136 -39 -2 0 -7 8 -10 19 -2 10 -40 42 -83 71 -44 29 -90 63 -104 76 -23
21 -21 13 17 -64 24 -48 43 -90 43 -95 0 -8 -43 12 -73 35 -10 7 -24 42 -32
78 -9 36 -35 110 -59 165 -43 97 -64 155 -53 145 3 -3 28 -39 56 -82z m3084
-79 c-17 -32 -18 -102 -21 -994 -1 -528 0 -974 3 -992 3 -18 17 -46 31 -63 14
-16 24 -30 22 -30 -3 0 -65 -16 -139 -35 -74 -19 -138 -35 -144 -35 -5 0 -20
21 -32 48 -11 26 -70 157 -131 292 -60 135 -149 331 -197 435 -85 184 -113
246 -300 668 -94 213 -94 212 -159 187 l-26 -10 1 -422 c1 -233 4 -633 8 -889
6 -441 7 -468 25 -488 11 -12 17 -24 14 -27 -8 -7 -381 -104 -385 -100 -2 2 6
21 19 42 l23 39 0 1017 c0 1011 0 1018 20 1018 30 0 232 54 397 107 82 25 150
45 152 42 9 -9 148 -305 220 -466 41 -94 112 -249 157 -344 44 -96 90 -195
102 -221 12 -27 23 -48 26 -48 6 0 -2 1132 -7 1137 -1 1 -16 18 -33 38 l-31
35 28 6 c16 3 106 25 199 48 94 24 171 42 173 41 1 -1 -6 -17 -15 -36z m-3359
-40 c23 -11 46 -53 46 -86 0 -23 -51 -63 -81 -63 -41 0 -58 9 -74 41 -21 40
-19 57 14 90 32 31 55 36 95 18z m-2264 -69 c58 -132 168 -263 291 -347 78
-54 221 -126 302 -153 l79 -27 -92 -18 c-51 -10 -129 -18 -173 -19 l-81 -1 -9
43 c-7 38 -11 42 -38 42 -27 0 -29 -2 -29 -41 0 -41 0 -41 -32 -34 -60 13
-143 50 -146 65 -1 9 11 37 28 62 27 41 29 49 18 67 -19 32 -33 26 -80 -34
l-42 -54 -38 41 c-21 23 -44 56 -53 75 -19 40 -12 57 46 106 31 27 39 40 35
55 -13 41 -31 44 -71 12 -21 -17 -40 -28 -42 -26 -3 2 0 30 7 60 13 63 79 202
89 189 4 -4 18 -33 31 -63z m2480 8 c40 -43 12 -108 -48 -110 -41 -1 -72 26
-72 64 0 61 78 91 120 46z m-481 -104 c1 -14 -25 -44 -76 -91 -121 -109 -170
-142 -288 -199 -168 -81 -186 -77 -50 11 140 90 221 155 325 259 77 79 87 81
89 20z m281 -61 c28 -23 31 -31 27 -61 -11 -62 -55 -91 -112 -72 -62 20 -78
101 -27 140 34 28 74 25 112 -7z m1663 -175 c-16 -29 -19 -74 -23 -407 l-5
-374 -135 -38 c-74 -21 -141 -39 -147 -39 -10 0 -13 79 -13 360 l0 360 -34 37
-34 38 186 46 c236 59 228 58 205 17z m-709 -212 c22 -11 53 -38 70 -59 l31
-39 -2 -323 c-1 -300 -3 -325 -21 -361 -25 -50 -55 -81 -114 -122 -27 -18 -48
-35 -48 -38 0 -2 29 -39 65 -82 36 -42 77 -99 90 -126 l25 -50 0 -377 0 -376
24 -36 24 -35 -21 -6 c-12 -3 -85 -22 -162 -42 -77 -19 -148 -38 -157 -40 -17
-5 -18 19 -18 410 l0 415 -52 68 c-118 156 -128 165 -167 160 -50 -6 -262 -64
-273 -75 -5 -5 -7 -245 -6 -534 l3 -526 23 -31 c12 -17 20 -31 16 -31 -5 0
-337 -85 -377 -96 -18 -6 -18 -5 0 28 17 31 18 91 23 1075 3 573 7 1044 10
1047 7 6 795 211 865 224 61 12 98 7 149 -22z m-1421 -315 c23 -16 58 -46 77
-66 l35 -36 5 -182 c5 -167 7 -185 28 -221 13 -21 22 -40 20 -41 -12 -9 -302
-73 -313 -68 -20 7 -23 25 -29 172 -6 134 -16 161 -63 161 -14 0 -158 -34
-321 -76 -164 -42 -358 -91 -432 -110 -107 -27 -140 -39 -157 -60 l-23 -25 0
-785 c0 -771 0 -784 20 -804 11 -11 26 -20 32 -20 7 0 206 48 443 107 401 100
432 109 465 139 l35 32 5 221 c3 132 9 224 15 230 9 9 316 91 322 86 2 -1 -7
-28 -19 -61 -19 -52 -22 -87 -27 -309 -7 -287 -2 -269 -117 -393 l-59 -63
-355 -89 c-195 -48 -453 -113 -572 -144 -119 -31 -232 -56 -250 -56 -60 0
-187 92 -225 163 -16 30 -17 98 -14 907 2 732 5 880 17 905 22 48 161 201 194
215 41 17 1169 299 1198 300 13 0 42 -13 65 -29z m2109 -940 l3 -549 23 -31
22 -30 -52 -15 c-78 -22 -329 -86 -338 -86 -4 0 3 21 16 47 l24 46 0 543 c0
401 3 545 12 550 11 7 253 71 275 73 9 1 13 -128 15 -548z m-2504 282 l-3
-186 -40 -14 c-64 -22 -264 -63 -280 -57 -8 4 -23 3 -32 -1 -17 -7 -16 -8 2
-16 13 -5 5 -6 -22 -2 -24 3 -43 1 -43 -4 0 -7 -74 -33 -95 -33 -3 0 -6 82 -6
182 -1 143 2 185 13 190 14 8 474 126 496 127 10 1 12 -40 10 -186z m3480 21
l32 -56 0 -303 0 -303 -36 -12 c-19 -7 -38 -9 -42 -5 -9 9 -16 614 -7 681 3
30 9 54 13 54 4 0 22 -25 40 -56z m-2097 -490 c18 -29 19 -53 19 -376 l0 -345
-24 -13 c-69 -36 -76 5 -76 437 0 198 3 362 6 366 8 8 52 -32 75 -69z m4539
-330 c0 -70 -3 -85 -14 -81 -8 3 -31 1 -51 -4 l-36 -10 3 -262 c2 -144 7 -269
11 -278 7 -14 -3 -19 -60 -33 -37 -9 -77 -20 -88 -23 -18 -5 -19 -4 -5 12 12
15 16 67 18 287 l3 269 -28 -7 c-15 -4 -40 -13 -55 -21 l-28 -14 0 79 0 78
113 28 c61 15 132 36 157 46 25 10 48 18 53 19 4 1 7 -38 7 -85z m-1908 17
l-4 -48 -211 -58 c-682 -183 -1409 -381 -1520 -412 l-128 -35 -86 18 -86 18
44 19 c65 27 283 89 1154 324 553 149 645 174 730 198 115 32 111 33 107 -24z
m-4017 -183 c-4 -106 -8 -194 -9 -195 -1 -2 -106 -30 -232 -63 -126 -33 -239
-63 -252 -66 l-22 -6 2 193 3 193 45 14 c39 11 458 120 469 122 2 0 0 -87 -4
-192z m5325 17 c39 -38 54 -85 52 -172 0 -59 -7 -85 -32 -139 l-32 -66 43 -85
c24 -46 53 -96 66 -109 25 -28 28 -26 -63 -49 -75 -18 -74 -18 -74 -1 0 24
-81 176 -93 176 -7 0 -23 -3 -36 -7 -23 -6 -23 -8 -19 -93 3 -47 10 -96 16
-107 11 -20 7 -22 -71 -41 -45 -12 -83 -19 -85 -17 -2 2 2 13 9 26 14 27 26
434 15 523 -6 43 -15 66 -38 91 -35 40 -43 34 103 75 132 38 196 36 239 -5z
m-1310 -44 c0 -42 -3 -49 -22 -53 -13 -3 -162 -43 -333 -90 -170 -47 -479
-131 -685 -187 -206 -56 -396 -111 -422 -123 l-46 -21 -58 36 c-35 22 -52 38
-43 41 168 53 317 95 989 277 256 70 583 160 595 164 22 8 25 3 25 -44z m670
-100 c19 -10 45 -36 58 -57 22 -38 22 -46 20 -249 -3 -196 -5 -213 -25 -252
-53 -99 -139 -149 -243 -141 -49 3 -65 9 -90 33 -48 46 -55 81 -55 291 l0 190
30 59 c48 93 127 144 225 145 26 0 60 -8 80 -19z m-662 -181 c47 -29 72 -89
72 -177 0 -151 -72 -264 -198 -307 l-37 -13 0 -79 c0 -43 3 -88 8 -99 6 -19 0
-23 -79 -42 -76 -18 -84 -19 -78 -4 19 47 24 107 24 329 0 224 -2 246 -20 282
-11 22 -25 40 -31 40 -6 0 -9 5 -7 11 5 16 221 77 273 78 24 1 53 -7 73 -19z
m-584 -161 c54 -23 54 -23 3 -106 l-31 -53 -26 25 c-35 34 -74 32 -111 -4 -28
-29 -37 -64 -21 -88 4 -7 48 -34 97 -61 107 -58 128 -87 128 -171 0 -135 -101
-240 -229 -241 -40 0 -60 6 -97 31 -26 17 -49 35 -52 39 -3 5 14 36 38 68 l44
60 27 -34 c43 -54 108 -42 136 26 17 42 -3 70 -77 104 -79 38 -123 72 -139
112 -42 100 16 242 121 297 43 23 133 21 189 -4z m-502 -196 c-9 -78 -21 -142
-32 -163 l-18 -35 -7 37 c-4 21 -6 88 -3 149 3 95 6 113 23 125 10 8 26 14 35
14 14 0 14 -12 2 -127z m-1713 69 c-8 -4 -33 -22 -55 -41 -44 -37 -24 -31
-694 -211 -337 -91 -521 -139 -532 -140 -5 0 -8 23 -8 50 0 28 1 50 3 50 2 0
91 23 198 50 605 157 832 215 904 231 77 17 217 25 184 11z m861 -3 c172 -27
346 -118 485 -254 140 -137 220 -282 261 -473 16 -78 18 -279 4 -372 -12 -72
-53 -202 -76 -240 -11 -17 -13 -19 -9 -5 15 44 35 155 45 239 25 217 -80 607
-202 752 -47 55 -148 149 -148 137 0 -6 30 -59 66 -119 87 -144 107 -185 143
-290 50 -150 66 -244 65 -394 0 -139 -23 -273 -58 -350 -9 -19 -13 -26 -11
-14 82 335 47 624 -110 921 -68 129 -127 214 -187 269 -47 44 -172 109 -225
118 -32 5 -32 5 25 -52 31 -32 79 -87 107 -123 l50 -64 -47 40 c-26 22 -47 45
-48 51 0 7 -8 14 -17 18 -10 3 -24 9 -32 12 -10 5 -11 3 -5 -7 7 -12 5 -12 -9
0 -9 7 -15 17 -12 21 2 4 -7 18 -20 30 -25 24 -35 16 -12 -10 10 -12 9 -12 -5
-1 -10 7 -18 20 -18 27 0 8 -7 14 -15 14 -8 0 -31 11 -51 25 -34 23 -104 35
-104 17 0 -4 50 -57 111 -117 61 -61 115 -119 120 -130 6 -11 -3 -5 -19 14
-19 22 -33 31 -42 26 -10 -6 -9 -10 4 -17 20 -11 45 -54 24 -43 -8 4 -7 1 2
-7 8 -7 28 -38 43 -68 33 -65 27 -59 -38 35 -26 39 -62 85 -79 104 -29 31 -29
33 -6 20 31 -16 52 -20 44 -8 -3 5 -9 7 -13 4 -5 -2 -16 4 -26 15 -10 11 -22
17 -28 13 -6 -4 -7 -1 -3 6 5 8 0 14 -13 18 -11 3 -18 10 -15 15 4 6 -1 8 -13
4 -13 -4 -28 3 -48 24 -16 17 -50 44 -76 61 l-47 30 -48 -17 c-27 -9 -53 -20
-59 -24 -5 -4 -26 -11 -45 -15 -37 -8 -110 -42 -110 -51 0 -3 4 -3 8 0 5 3 9
-1 9 -9 0 -11 -5 -12 -21 -4 -13 7 -10 1 9 -16 17 -14 24 -24 18 -20 -7 3 -13
4 -13 2 0 -7 84 -62 95 -62 16 -1 36 -16 30 -24 -2 -5 7 -19 21 -32 15 -14 23
-17 19 -8 -3 9 2 22 12 30 16 12 17 12 6 -1 -19 -25 -11 -43 56 -121 67 -78
137 -176 130 -184 -3 -2 -23 -7 -44 -10 -39 -6 -41 -4 -65 37 -26 45 -310 337
-345 355 -17 9 -27 5 -60 -26 -22 -20 -38 -36 -37 -35 7 4 42 -30 42 -40 0
-11 117 -126 186 -182 25 -21 50 -46 56 -57 9 -18 7 -18 -23 4 -19 13 -38 28
-44 34 -20 23 -99 79 -113 81 -8 2 -24 -1 -36 -6 -11 -5 -40 -14 -64 -20 -27
-7 -40 -15 -36 -22 5 -7 2 -8 -6 -3 -8 5 -20 -1 -32 -16 -11 -13 -16 -17 -12
-9 7 13 5 13 -9 1 -9 -7 -14 -17 -11 -22 3 -5 -2 -6 -10 -3 -8 3 -30 -10 -53
-32 -25 -24 -33 -39 -25 -42 7 -2 21 3 30 11 9 8 45 25 79 38 34 13 58 26 53
29 -6 3 6 6 25 7 30 1 22 -5 -63 -50 -53 -27 -107 -55 -119 -61 -26 -13 -28
-18 -54 -111 -13 -49 -19 -104 -19 -182 l0 -112 73 55 c155 119 416 221 724
283 l82 17 15 -37 c31 -78 57 -197 63 -288 l6 -93 -38 -35 c-25 -23 -49 -35
-71 -36 -20 -1 -29 -6 -24 -11 6 -6 -21 -19 -72 -33 -127 -37 -295 -109 -388
-167 -47 -29 -107 -66 -133 -81 -39 -22 -45 -30 -36 -41 7 -8 10 -17 7 -19
-10 -11 -116 114 -157 184 -96 163 -136 330 -128 520 6 148 22 213 82 336 132
273 373 461 665 520 80 16 224 18 310 4z m3443 -181 c-3 -18 -26 -96 -52 -173
-37 -112 -50 -140 -63 -139 -10 1 -18 -3 -19 -10 -4 -61 -35 -134 -102 -237
-103 -160 -303 -365 -459 -468 -150 -99 -359 -193 -483 -217 l-35 -6 0 38 0
39 121 39 c232 75 394 176 586 366 129 127 180 193 265 340 71 124 120 239
152 358 24 91 23 90 88 101 4 0 5 -14 1 -31z m-6516 -213 c40 -27 72 -53 73
-57 0 -13 -68 -48 -94 -48 -45 0 -66 32 -66 101 0 33 3 59 8 57 4 -1 39 -25
79 -53z m5952 41 c7 -8 8 -16 4 -18 -15 -6 -93 -101 -93 -112 0 -8 3 -8 8 0 4
6 30 25 57 44 28 18 55 39 61 46 8 10 31 -2 110 -57 54 -39 98 -77 98 -85 -2
-20 -78 -137 -139 -214 -53 -66 -185 -200 -239 -241 l-29 -23 -24 30 c-14 16
-51 63 -84 104 -32 41 -64 81 -71 89 -9 11 -7 43 11 145 12 72 23 140 24 151
1 11 23 40 49 63 l47 44 31 -36 32 -35 55 59 c57 62 72 70 92 46z m-5220 -52
c27 -23 31 -32 31 -79 0 -61 -19 -91 -66 -104 -46 -13 -90 16 -104 68 -13 50
-5 83 27 116 33 32 73 32 112 -1z m4767 -289 l-20 -105 -36 -9 c-100 -25 -102
-25 -142 32 -21 29 -50 67 -64 85 -15 18 -24 35 -21 38 3 4 43 10 89 15 80 8
184 32 196 43 16 17 16 -4 -2 -99z m-1993 43 c4 -12 5 -23 4 -24 -6 -6 -320
-44 -361 -44 -38 0 -46 -3 -46 -19 0 -10 -7 -24 -15 -31 -21 -18 -36 -1 -38
41 -2 39 -9 37 242 74 202 30 207 30 214 3z m1618 -55 c14 -16 47 -57 72 -91
41 -56 45 -66 35 -85 -9 -17 -12 -19 -16 -7 -10 29 -54 80 -65 73 -5 -3 -7 -2
-4 4 3 5 -6 28 -22 51 l-27 41 1 -42 c0 -47 20 -91 37 -81 6 4 8 3 5 -3 -3 -5
9 -33 28 -61 l34 -52 -35 -107 c-19 -60 -38 -114 -43 -122 -8 -12 -22 -12 -86
-3 -43 5 -81 14 -86 19 -5 5 -4 37 2 73 19 115 -3 201 -75 296 -20 26 -34 49
-31 52 6 6 216 70 236 71 8 1 27 -11 40 -26z m-747 -62 c5 -40 13 -55 43 -81
34 -30 40 -32 94 -27 53 5 59 3 74 -19 22 -34 71 -56 139 -63 48 -5 63 -11 78
-32 38 -51 33 -143 -12 -217 -17 -28 -23 -32 -35 -22 -9 8 -28 10 -52 6 -21
-4 -62 -10 -91 -13 -51 -5 -53 -6 -77 -54 -18 -35 -41 -59 -80 -85 -43 -29
-57 -45 -65 -74 -12 -43 13 -34 -347 -130 l-252 -66 27 32 c67 82 122 163 137
204 77 211 92 285 102 483 l6 127 41 11 c23 5 59 17 81 25 39 14 148 41 171
43 6 1 14 -21 18 -48z m-834 -15 c0 -8 3 -22 7 -31 5 -16 0 -17 -55 -10 -59 7
-62 6 -62 -15 0 -20 -3 -22 -42 -16 -83 13 -103 12 -103 -4 0 -12 -14 -14 -73
-12 -65 3 -72 1 -72 -16 0 -11 -6 -25 -14 -31 -12 -10 -17 -8 -25 8 -15 27
-14 68 2 74 7 2 71 14 142 26 72 11 155 25 185 30 85 13 110 13 110 -3z m2044
-177 c26 -34 44 -65 40 -69 -22 -20 -341 -127 -350 -117 -9 9 50 199 63 204
19 7 164 40 183 42 8 0 37 -27 64 -60z m-2006 7 c3 -26 2 -27 -31 -21 -46 9
-77 -2 -77 -26 0 -10 -1 -19 -2 -19 -2 0 -21 6 -42 14 -45 16 -73 11 -87 -15
-9 -18 -18 -19 -89 -13 -75 6 -80 6 -80 -13 0 -11 -9 -28 -20 -38 -19 -17 -20
-17 -20 1 0 10 -3 35 -6 55 l-6 35 184 28 c100 16 199 32 218 36 48 11 54 8
58 -24z m3 -139 c-1 -4 -1 -13 -1 -21 0 -9 -18 -16 -52 -20 -29 -4 -131 -18
-225 -33 -95 -15 -176 -24 -179 -20 -22 22 13 35 157 56 85 13 183 29 219 36
69 13 82 14 81 2z m-97 -241 c-4 -17 -11 -42 -17 -56 -5 -14 -11 -32 -13 -40
-2 -8 -8 -16 -13 -18 -6 -2 -11 -16 -11 -30 -1 -33 -64 -148 -80 -144 -6 1
-10 -6 -8 -16 6 -34 -71 -126 -90 -107 -8 8 19 35 35 35 8 0 11 4 8 10 -3 5 5
26 19 47 14 21 33 58 42 82 15 38 19 42 26 25 6 -15 7 -13 4 9 -2 16 4 43 12
60 9 18 26 71 37 120 12 48 24 84 28 81 4 -4 7 -1 8 7 0 8 5 3 10 -10 5 -14 7
-39 3 -55z m-380 -23 c-22 -123 -119 -353 -159 -379 -14 -9 -25 -21 -25 -28 0
-6 5 -4 10 4 5 8 10 10 10 4 0 -6 -6 -17 -14 -23 -11 -9 -15 -9 -20 1 -3 7 -3
3 0 -9 4 -19 1 -23 -20 -23 -34 0 -34 20 3 106 34 81 97 282 106 338 6 36 8
38 36 34 16 -3 32 -1 35 4 3 4 14 8 25 8 18 0 19 -4 13 -37z m1940 -51 c-4
-20 -9 -41 -12 -46 -4 -8 -158 -4 -166 5 -3 2 0 22 6 44 l11 40 84 -3 84 -3
-7 -37z m-2334 -82 c0 -4 18 -15 40 -25 22 -10 40 -20 40 -22 0 -7 -30 -63
-34 -63 -2 0 -34 14 -71 30 -37 17 -71 30 -77 30 -27 0 27 -33 105 -64 35 -14
36 -16 25 -40 -14 -31 -13 -31 -63 -1 -22 14 -45 25 -52 25 -17 0 28 -43 60
-57 15 -7 27 -16 27 -20 0 -14 -39 -73 -48 -73 -25 0 -217 93 -257 124 -20 15
-20 15 1 16 12 0 32 9 45 19 14 10 38 27 55 37 17 11 51 32 75 49 24 16 55 35
69 41 25 11 60 8 60 -6z"/>
<path d="M6602 7854 c-18 -27 -48 -71 -67 -98 -38 -52 -45 -76 -17 -55 15 11
15 11 4 -1 -7 -8 -18 -15 -25 -15 -14 0 -66 -92 -67 -117 0 -27 12 -21 43 20
15 20 43 57 63 82 50 65 106 177 102 207 -3 24 -5 23 -36 -23z"/>
<path d="M6342 7600 c-6 -15 -6 -67 -1 -130 15 -190 17 -199 63 -248 l42 -45
60 47 c32 25 79 60 103 78 43 33 81 104 81 153 0 16 -5 13 -22 -13 -11 -19
-66 -69 -120 -113 -78 -63 -102 -78 -113 -69 -15 12 -21 43 -50 225 -20 128
-29 152 -43 115z"/>
<path d="M5034 6624 c-11 -22 -10 -41 1 -69 24 -54 -15 -148 -75 -183 -22 -12
-22 -11 3 8 15 12 32 32 38 43 9 18 5 16 -22 -8 -46 -40 -59 -57 -54 -65 2 -4
-2 -7 -10 -7 -8 0 -13 4 -12 9 2 9 -373 138 -397 138 -6 0 -2 -8 9 -16 27 -21
276 -141 309 -150 31 -7 35 -24 6 -24 -28 0 -25 -26 6 -55 31 -28 37 -26 124
40 46 36 110 99 117 116 16 38 23 64 23 83 0 31 -27 118 -43 140 -14 19 -15
19 -23 0z"/>
<path d="M4586 6612 c-6 -10 53 -30 217 -72 143 -36 177 -38 177 -10 0 11 -2
20 -4 20 -3 0 -85 16 -183 35 -195 38 -199 39 -207 27z"/>
<path d="M4540 6544 c0 -9 192 -81 292 -109 69 -19 142 -17 146 5 2 12 -23 20
-110 38 -62 13 -142 32 -178 42 -84 25 -150 35 -150 24z"/>
<path d="M8010 6326 c-433 -110 -402 -101 -428 -129 -21 -22 -21 -25 -24 -754
-3 -707 -2 -731 16 -752 11 -12 30 -21 43 -21 30 0 711 175 765 197 71 29 68
-11 68 797 l0 725 -22 15 c-12 9 -29 16 -38 16 -8 0 -179 -42 -380 -94z m187
-703 c0 -329 -3 -609 -7 -623 -5 -22 -17 -28 -91 -46 -46 -12 -128 -34 -181
-48 -54 -14 -100 -26 -103 -26 -3 0 -5 279 -4 620 l2 620 21 6 c11 3 95 25
186 49 91 24 168 44 171 44 4 1 7 -268 6 -596z"/>
<path d="M4146 5315 c-228 -57 -241 -61 -253 -88 -10 -23 -8 -415 2 -425 7 -7
383 84 438 105 61 25 67 48 67 241 0 155 -2 170 -20 190 -12 12 -28 22 -38 21
-9 0 -98 -20 -196 -44z"/>
<path d="M7950 3601 c-24 -7 -25 -9 -27 -109 -2 -114 1 -117 58 -79 40 27 63
84 56 141 -7 53 -27 64 -87 47z"/>
<path d="M7298 3421 l-33 -29 -3 -171 c-3 -160 -2 -171 17 -190 31 -31 68 -26
106 12 29 29 34 41 40 109 4 42 5 120 3 173 -3 81 -7 100 -23 111 -31 23 -72
17 -107 -15z"/>
<path d="M6675 3261 l-30 -6 -3 -113 c-1 -61 0 -112 4 -112 21 0 69 41 85 72
24 46 26 130 3 152 -8 9 -18 15 -22 15 -4 -1 -20 -4 -37 -8z"/>
<path d="M6082 2274 c-7 -8 -23 -14 -36 -14 -35 0 -130 -52 -144 -80 -18 -34
-12 -221 7 -244 12 -15 11 -23 -8 -59 l-23 -42 25 30 24 29 16 -29 c16 -31 85
-105 98 -105 4 0 22 -12 41 -27 18 -15 30 -24 27 -19 -10 11 40 61 81 81 81
40 96 75 60 145 -25 49 -25 83 0 139 11 24 19 45 18 46 -2 1 -23 7 -46 14 -24
7 -42 15 -39 18 3 3 -8 17 -25 31 -17 14 -38 43 -47 63 -14 30 -19 34 -29 23z"/>
<path d="M4352 9125 c-115 -18 -222 -42 -321 -71 l-83 -25 6 -31 c3 -17 6 -35
6 -40 0 -13 23 -7 180 43 159 50 272 90 267 95 -2 2 -41 -3 -87 -11 -95 -17
-121 -13 -33 5 105 21 175 39 181 44 7 8 -19 6 -116 -9z"/>
<path d="M6090 9125 c-18 -22 -6 -42 41 -65 144 -74 341 -222 495 -372 50 -49
75 -67 87 -62 39 15 17 49 -110 174 -129 127 -246 213 -404 299 -82 45 -91 47
-109 26z"/>
<path d="M3700 8970 c-64 -47 -86 -55 -144 -47 -40 6 -46 3 -77 -30 -45 -47
-91 -66 -139 -58 -35 6 -41 3 -83 -38 -49 -49 -85 -62 -134 -48 -29 9 -34 7
-58 -25 -35 -46 -77 -66 -131 -63 -40 3 -46 0 -78 -38 -20 -22 -60 -52 -91
-67 -30 -14 -55 -31 -55 -38 0 -33 14 -58 31 -58 10 0 87 32 171 71 191 89
505 222 708 300 85 33 167 65 183 71 22 8 27 17 27 43 0 36 -12 50 -50 60 -19
5 -37 -3 -80 -35z"/>
<path d="M6837 8802 c-26 -29 -22 -77 9 -101 33 -26 55 -26 85 -2 26 21 32 79
10 105 -19 22 -83 21 -104 -2z"/>
<path d="M3905 8752 c-77 -32 -186 -80 -242 -107 l-103 -48 0 -39 c0 -29 4
-38 18 -38 27 0 521 223 527 238 8 22 -14 52 -38 52 -12 0 -85 -27 -162 -58z"/>
<path d="M8066 8145 c-122 -43 -152 -174 -61 -261 55 -54 104 -64 168 -36 60
27 90 71 95 141 4 70 -19 117 -74 148 -45 26 -73 28 -128 8z"/>
<path d="M1714 7878 c-47 -46 -113 -118 -145 -162 -57 -74 -115 -174 -107
-182 2 -2 32 29 66 70 68 80 224 234 287 283 34 27 38 35 29 50 -22 36 -44 26
-130 -59z"/>
<path d="M8438 7919 c-16 -9 -18 -27 -18 -150 l0 -140 34 -14 c35 -15 64 -11
78 9 4 6 8 73 8 148 0 126 -2 138 -19 148 -25 13 -61 12 -83 -1z"/>
<path d="M9140 7066 c0 -149 8 -179 48 -174 l27 3 3 94 c1 52 8 101 14 108 13
16 -20 56 -64 79 l-28 15 0 -125z"/>
<path d="M9369 6518 c-4 -151 3 -253 19 -265 20 -16 74 -17 90 -1 13 13 17
255 4 274 -12 19 -49 34 -81 34 -30 0 -31 -2 -32 -42z"/>
<path d="M863 6325 l-33 -33 0 -172 0 -171 23 7 c72 22 67 10 67 159 l0 136
36 21 35 21 -26 27 c-41 43 -63 44 -102 5z"/>
<path d="M9398 5878 l-28 -10 0 -229 0 -230 48 7 c26 3 50 9 53 13 4 3 10 104
14 223 6 210 6 217 -14 227 -23 13 -37 13 -73 -1z"/>
<path d="M843 5833 c-10 -3 -13 -52 -13 -193 0 -206 -2 -200 61 -200 l29 0 0
200 0 200 -32 -1 c-18 0 -39 -3 -45 -6z"/>
<path d="M1207 5273 c-108 -37 -187 -147 -187 -259 0 -199 200 -332 375 -250
175 82 222 308 91 439 -75 76 -184 103 -279 70z"/>
<path d="M9398 5078 l-28 -10 0 -324 c0 -206 4 -324 10 -324 5 0 29 5 53 12
l44 11 7 150 c3 83 6 221 6 308 0 192 -9 208 -92 177z"/>
<path d="M1077 4580 c-92 -23 -170 -90 -209 -178 -17 -37 -20 -60 -16 -127 4
-69 9 -89 34 -131 124 -201 410 -181 507 35 29 66 29 169 -1 237 -27 59 -92
127 -143 148 -48 20 -126 27 -172 16z m132 -157 c99 -75 89 -204 -20 -262 -58
-31 -109 -23 -155 23 -59 59 -64 145 -12 211 44 56 132 69 187 28z"/>
<path d="M9423 4289 c-38 -17 -43 -23 -43 -53 0 -135 -103 -479 -215 -720 -47
-100 -77 -178 -70 -184 13 -14 58 23 92 75 131 205 264 584 298 851 8 60 4 62
-62 31z"/>
<path d="M1328 3899 c-17 -9 -18 -50 -18 -629 l0 -619 26 -20 c15 -12 31 -21
35 -21 5 0 9 291 9 650 0 612 -1 650 -17 650 -10 0 -26 -5 -35 -11z"/>
<path d="M1090 3837 l-25 -13 -3 -342 -2 -343 47 7 c27 3 51 9 56 13 4 4 6
160 5 347 l-3 339 -25 3 c-14 1 -36 -4 -50 -11z"/>
<path d="M8918 3589 c-16 -9 -18 -31 -18 -234 0 -153 3 -225 11 -225 9 0 47
17 57 26 2 1 6 96 9 210 5 192 4 208 -13 221 -21 15 -24 16 -46 2z"/>
<path d="M1103 3032 l-43 -16 0 -123 0 -123 48 -35 c26 -19 50 -35 55 -35 4 0
7 79 7 175 0 193 4 185 -67 157z"/>
<path d="M3443 2679 c-27 -8 -33 -15 -33 -37 0 -64 -12 -102 -32 -102 -17 0
-19 5 -13 40 l7 39 -39 -6 c-59 -8 -194 -39 -358 -81 l-150 -38 -3 -39 c-4
-44 6 -93 16 -79 4 5 16 11 27 12 11 2 52 14 90 27 72 25 143 34 162 22 6 -4
13 0 16 8 3 7 25 19 49 25 24 5 78 22 120 36 43 15 84 24 91 21 10 -4 12 -88
11 -408 -1 -425 0 -440 44 -451 11 -3 33 0 49 7 28 12 31 18 36 71 8 90 3 917
-6 932 -9 14 -38 14 -84 1z"/>
<path d="M8606 2502 c-26 -18 -50 -26 -76 -25 -26 1 -43 -4 -55 -17 -24 -27
-13 -47 34 -61 36 -11 45 -9 94 14 73 36 102 68 88 96 -15 27 -37 26 -85 -7z"/>
<path d="M2124 2256 c-99 -44 -99 -182 -1 -221 32 -13 46 -14 73 -5 68 23 103
107 72 174 -22 50 -92 75 -144 52z"/>
<path d="M2284 2046 c-29 -29 -34 -41 -34 -81 0 -40 5 -52 34 -81 46 -46 100
-48 150 -3 82 72 37 199 -71 199 -38 0 -51 -6 -79 -34z"/>
<path d="M2534 1886 c-30 -30 -34 -40 -34 -86 0 -46 4 -56 34 -86 40 -40 93
-46 140 -15 40 26 55 57 56 110 0 36 -6 49 -34 77 -29 29 -41 34 -81 34 -40 0
-52 -5 -81 -34z"/>
<path d="M3259 1577 c-97 -65 -61 -227 51 -227 78 0 130 52 130 130 0 36 -6
48 -39 81 -46 47 -89 52 -142 16z"/>
<path d="M3602 1548 c-7 -7 -12 -17 -12 -23 0 -38 167 -229 284 -324 90 -73
94 -75 111 -61 23 19 18 44 -16 69 -63 47 -243 228 -286 288 -45 64 -59 73
-81 51z"/>
<path d="M6000 1384 c-151 -41 -283 -78 -292 -81 -25 -7 -22 -27 6 -60 23 -27
25 -27 77 -16 129 29 572 153 585 164 12 9 12 15 2 27 -14 17 -70 42 -90 41
-7 0 -137 -34 -288 -75z"/>
</g>
</svg>
